<svg width="110" height="38" viewBox="0 0 110 38" fill="none" xmlns="http://www.w3.org/2000/svg">
<path d="M55.9625 22.4699V1.24841H50.778V11.6854C44.7418 6.77626 35.8512 7.66833 30.9201 13.6776C25.989 19.6871 26.8851 28.5379 32.9212 33.447C38.9576 38.3561 47.848 37.4641 52.7791 31.455C54.8376 28.9461 55.9623 25.8063 55.9625 22.5667C55.9647 22.5396 55.9625 22.5039 55.9625 22.4699ZM41.8497 31.4642C36.9173 31.4651 32.9182 27.4857 32.9168 22.5755C32.916 17.6653 36.9131 13.6835 41.8453 13.6824C46.7564 13.6813 50.747 17.6281 50.7778 22.5172V22.5821C50.7681 27.4862 46.7755 31.4581 41.8497 31.4642Z" fill="#0ECC5F"/>
<path d="M29.6573 22.5665C29.6573 22.3422 29.6573 22.1175 29.6415 21.8934C29.6325 21.7439 29.621 21.5943 29.6076 21.4447C29.6076 21.384 29.6076 21.3238 29.594 21.2651C29.5759 21.0675 29.5535 20.8748 29.5262 20.6792C29.5262 20.6792 29.5262 20.6593 29.5262 20.6481C29.4991 20.4416 29.4653 20.2374 29.427 20.0331C28.0188 12.3987 20.6606 7.34656 12.9921 8.74851C5.32401 10.1507 0.249266 17.476 1.65749 25.1104C3.06571 32.7448 10.4238 37.7969 18.0924 36.3948C21.4412 35.7826 24.455 33.9855 26.5782 31.3361L22.3881 28.3874C19.1609 32.1482 13.4825 32.5926 9.70509 29.3796C5.92747 26.1667 5.48153 20.5136 8.70849 16.753C11.9357 12.9925 17.6141 12.5481 21.3915 15.7609C22.7154 16.8866 23.6826 18.3707 24.1756 20.0329H15.5516L13.2975 25.1157H29.4254C29.5482 24.4485 29.6234 23.7737 29.6509 23.0959C29.6529 22.9658 29.6573 22.7908 29.6573 22.5665Z" fill="#0ECC5F"/>
<path d="M82.3031 22.5666C82.3031 22.7908 82.3031 23.0156 82.2853 23.2396C82.2853 23.3923 82.2648 23.5451 82.2536 23.6884C82.2536 23.7491 82.2536 23.8095 82.2402 23.868C82.2222 24.0636 82.1973 24.2585 82.1705 24.4539C82.1705 24.4539 82.1705 24.4738 82.1705 24.4852C82.141 24.6917 82.1073 24.8958 82.0712 25.1C80.6804 32.739 73.3324 37.8084 65.6594 36.4238C57.9865 35.0387 52.8942 27.7241 54.285 20.0851C55.6758 12.4461 63.0238 7.37664 70.6963 8.76128C74.0529 9.36709 77.0759 11.162 79.206 13.8145L75.0158 16.763C71.7878 13.0046 66.1105 12.5628 62.3353 15.7763C58.5598 18.9897 58.1161 24.6416 61.3442 28.4002C64.5718 32.1583 70.2493 32.6003 74.0245 29.3869C75.3469 28.2615 76.3127 26.7781 76.8053 25.1173H68.184L65.9296 20.0345H82.0576C82.1821 20.7014 82.2578 21.3764 82.2829 22.0543C82.2875 22.1828 82.3031 22.3554 82.3031 22.5666Z" fill="#0ECC5F"/>
<path d="M108.57 22.5665C108.57 22.3422 108.57 22.1175 108.554 21.8934C108.554 21.7408 108.534 21.5881 108.52 21.4447C108.52 21.384 108.52 21.3238 108.507 21.2651C108.489 21.0675 108.466 20.8748 108.439 20.6792C108.439 20.6792 108.439 20.6593 108.439 20.6481C108.412 20.4416 108.379 20.2374 108.34 20.0331C106.932 12.3987 99.5738 7.34656 91.9055 8.74851C84.2371 10.1505 79.162 17.476 80.5706 25.1104C81.9793 32.7448 89.3374 37.7969 97.0057 36.3948C100.355 35.7826 103.368 33.9855 105.491 31.3361L101.301 28.3874C98.0738 32.1482 92.3956 32.5926 88.618 29.3796C84.8404 26.1667 84.3944 20.5136 87.6216 16.753C90.8488 12.9925 96.527 12.5481 100.304 15.7609C101.628 16.8866 102.595 18.3707 103.088 20.0329H94.4759L92.2218 25.1157H108.338C108.462 24.4485 108.537 23.7737 108.564 23.0959C108.568 22.9658 108.57 22.7908 108.57 22.5665Z" fill="#0ECC5F"/>
</svg>
